{"title":"Fury (2014) BRRIP 720P NO CINAVIA","uid":11754287,"size":976012462,"categoryP":"video","categoryS":"hd___movies","magnet":"?xt=urn:btih:17cf4ffb3ee646ebd3155c4305a1df07f3e83cf0&amp;dn=Fury+%282014%29+BRRIP+720P+NO+CINAVIA&amp;tr=udp%3A%2F%2Ftracker.openbittorrent.com%3A80&amp;tr=udp%3A%2F%2Fopen.demonii.com%3A1337&amp;tr=udp%3A%2F%2Ftracker.coppersurfer.tk%3A6969&amp;tr=udp%3A%2F%2Fexodus.desync.com%3A6969","seeders":11,"leechers":0,"uploader":"jmanwf","files":4,"time":1426325199,"description":"\nStoryline\n\nApril, 1945. As the Allies make their final push in the European Theatre, a battle-hardened Army sergeant named Wardaddy (Brad Pitt) commands a Sherman tank and his five-man crew on a deadly mission behind enemy lines. Outnumbered, and out-gunned, Wardaddy and his men face overwhelming odds in their heroic attempts to strike at the heart of Nazi \n\n\n\n\nVideo\nID : 1\nFormat : AVC\nFormat/Info : Advanced Video Codec\nFormat profile : &lt;a class=&quot;__cf_email__&quot; href=&quot;/cdn-cgi/l/email-protection&quot; data-cfemail=&quot;357d5c525d7579011b04&quot;&gt;[email&amp;#160;protected]&lt;/a&gt;&lt;script cf-hash='f9e31' type=&quot;text/javascript&quot;&gt;\n/* &lt;![CDATA[ */!function(){try{var t=&quot;currentScript&quot;in document?document.currentScript:function(){for(var t=document.getElementsByTagName(&quot;script&quot;),e=t.length;e--;)if(t[e].getAttribute(&quot;cf-hash&quot;))return t[e]}();if(t&amp;&amp;t.previousSibling){var e,r,n,i,c=t.previousSibling,a=c.getAttribute(&quot;data-cfemail&quot;);if(a){for(e=&quot;&quot;,r=parseInt(a.substr(0,2),16),n=2;a.length-n;n+=2)i=parseInt(a.substr(n,2),16)^r,e+=String.fromCharCode(i);e=document.createTextNode(e),c.parentNode.replaceChild(e,c)}}}catch(u){}}();/* ]]&gt; */&lt;/script&gt;\nFormat settings, CABAC : Yes\nFormat settings, ReFrames : 4 frames\nCodec ID : avc1\nCodec ID/Info : Advanced Video Coding\nDuration : 2h 14mn\nBit rate : 866 Kbps\nWidth : 1 280 pixels\nHeight : 536 pixels\nDisplay aspect ratio : 2.40:1\nFrame rate mode : Variable\nFrame rate : 23.976 fps\nMinimum frame rate : 23.976 fps\nMaximum frame rate : 24.024 fps\nColor space : YUV\nChroma subsampling : 4:2:0\nBit depth : 8 bits\nScan type : Progressive\nBits/(Pixel*Frame) : 0.053\nStream size : 834 MiB (90%)\nWriting library : x264 core 142 r2479 dd79a61\nip_ratio=1.40 / aq=1:1.00\nColor primaries : BT.709\nMatrix coefficients : BT.709\nColor range : Limited\n\nAudio\nID : 2\nFormat : AAC\nFormat/Info : Advanced Audio Codec\nFormat profile : LC\nCodec ID : 40\nDuration : 2h 14mn\nBit rate mode : Variable\nBit rate : 93.7 Kbps\nMaximum bit rate : 375 Kbps\nChannel(s) : 2 channels\nChannel positions : Front: L R\nSampling rate : 48.0 KHz\nCompression mode : Lossy\nStream size : 90.2 MiB (10%)\n\n\n &lt;a href=&quot;\nhttp://www.imdb.com/title/tt2713180/&quot; rel=&quot;nofollow&quot; target=&quot;_NEW&quot;&gt;\nhttp://www.imdb.com/title/tt2713180/&lt;/a&gt;","torrent":{"xt":"urn:btih:17cf4ffb3ee646ebd3155c4305a1df07f3e83cf0","amp;dn":"Fury+%282014%29+BRRIP+720P+NO+CINAVIA","amp;tr":["udp%3A%2F%2Ftracker.openbittorrent.com%3A80","udp%3A%2F%2Fopen.demonii.com%3A1337","udp%3A%2F%2Ftracker.coppersurfer.tk%3A6969","udp%3A%2F%2Fexodus.desync.com%3A6969"],"infoHash":"17cf4ffb3ee646ebd3155c4305a1df07f3e83cf0","infoHashBuffer":{"type":"Buffer","data":[23,207,79,251,62,230,70,235,211,21,92,67,5,161,223,7,243,232,60,240]},"announce":[],"urlList":[]}}